<svg id="Ebene_1" data-name="Ebene 1" xmlns="http://www.w3.org/2000/svg" xmlns:xlink="http://www.w3.org/1999/xlink" width="192" height="192" viewBox="0 0 192 192"><defs><clipPath id="clip-path"><rect width="192" height="192" style="fill:none"/></clipPath><clipPath id="clip-path-4"><rect x="79.15" y="25.35" width="33.22" height="12.23" style="fill:none"/></clipPath><clipPath id="clip-path-5"><rect x="98.45" y="30.16" width="42.51" height="48.91" style="fill:none"/></clipPath><clipPath id="clip-path-6"><rect x="146.34" y="47.68" width="16.61" height="28.72" style="fill:none"/></clipPath><clipPath id="clip-path-7"><rect x="122.38" y="71.48" width="43.75" height="49.05" style="fill:none"/></clipPath><clipPath id="clip-path-8"><rect x="146.34" y="115.61" width="16.61" height="28.72" style="fill:none"/></clipPath><clipPath id="clip-path-9"><rect x="79.2" y="154.42" width="33.17" height="12.22" style="fill:none"/></clipPath><clipPath id="clip-path-10"><rect x="28.56" y="115.61" width="16.61" height="28.72" style="fill:none"/></clipPath><clipPath id="clip-path-11"><rect x="28.56" y="47.68" width="16.61" height="28.72" style="fill:none"/></clipPath><clipPath id="clip-path-12"><rect x="50.56" y="30.16" width="42.51" height="48.91" style="fill:none"/></clipPath><clipPath id="clip-path-13"><rect x="74.51" y="71.45" width="42.48" height="49.1" style="fill:none"/></clipPath><clipPath id="clip-path-14"><rect x="98.45" y="112.94" width="42.51" height="48.92" style="fill:none"/></clipPath><clipPath id="clip-path-15"><rect x="50.56" y="112.94" width="42.51" height="48.92" style="fill:none"/></clipPath><clipPath id="clip-path-16"><rect x="25.38" y="71.48" width="43.75" height="49.05" style="fill:none"/></clipPath></defs><g style="clip-path:url(#clip-path)"><g style="clip-path:url(#clip-path)"><g style="isolation:isolate"><g style="clip-path:url(#clip-path)"><rect width="192" height="192" style="fill:#505050;opacity:0"/></g></g><path d="M131.14,17.6H60.35a17.07,17.07,0,0,0-14.8,8.54L10.15,87.45a17.1,17.1,0,0,0,0,17.09l35.4,61.31a17.1,17.1,0,0,0,14.8,8.54h70.8a17.1,17.1,0,0,0,14.8-8.54l35.4-61.31a17.1,17.1,0,0,0,0-17.09L146,26.15a17.09,17.09,0,0,0-14.8-8.55Z" style="fill:#fff"/><g style="isolation:isolate"><g style="clip-path:url(#clip-path-4)"><path d="M112.37,28a70.66,70.66,0,0,0-33.22,0l16.61,9.59Z" style="fill:#069;opacity:0.8705899715423584"/></g></g><g style="isolation:isolate"><g style="clip-path:url(#clip-path-5)"><path d="M98.45,66.8l21.24,12.27L141,66.8V42.62a67.73,67.73,0,0,0-21.54-12.46l-21,12.11Z" style="fill:#069;opacity:0.8705899715423584"/></g></g><g style="isolation:isolate"><g style="clip-path:url(#clip-path-6)"><path d="M162.33,74.42a69.59,69.59,0,0,0-16-26.74V66.8L163,76.41c-.19-.68-.38-1.32-.62-2" style="fill:#069;opacity:0.8705899715423584"/></g></g><g style="isolation:isolate"><g style="clip-path:url(#clip-path-7)"><path d="M164.62,83.6c0-.06-21-12.09-21-12.12L122.38,83.73v24.55l21.27,12.25,21-12.09a68.67,68.67,0,0,0,0-24.84" style="fill:#069;opacity:0.8705899715423584"/></g></g><g style="isolation:isolate"><g style="clip-path:url(#clip-path-8)"><path d="M146.34,144.33A69.65,69.65,0,0,0,163,115.61l-16.61,9.61Z" style="fill:#069;opacity:0.8705899715423584"/></g></g><g style="isolation:isolate"><g style="clip-path:url(#clip-path-9)"><path d="M79.2,164a70.19,70.19,0,0,0,33.17,0l-16.62-9.59Z" style="fill:#069;opacity:0.8705899715423584"/></g></g><g style="isolation:isolate"><g style="clip-path:url(#clip-path-10)"><path d="M29.18,117.6a69.63,69.63,0,0,0,16,26.73V125.22l-16.61-9.61c.19.67.38,1.31.62,2" style="fill:#069;opacity:0.8705899715423584"/></g></g><g style="isolation:isolate"><g style="clip-path:url(#clip-path-11)"><path d="M45.17,47.68A69.8,69.8,0,0,0,28.56,76.41L45.17,66.8Z" style="fill:#069;opacity:0.8705899715423584"/></g></g><g style="isolation:isolate"><g style="clip-path:url(#clip-path-12)"><path d="M93.06,66.8V42.27l-21-12.11A67.2,67.2,0,0,0,50.56,42.62V66.8L71.82,79.07Z" style="fill:#069;opacity:0.8705899715423584"/></g></g><g style="isolation:isolate"><g style="clip-path:url(#clip-path-13)"><polygon points="74.52 83.73 74.52 108.28 95.76 120.56 117 108.28 117 83.73 95.76 71.45 74.52 83.73" style="fill:#069;opacity:0.8705899715423584"/></g></g><g style="isolation:isolate"><g style="clip-path:url(#clip-path-14)"><path d="M98.45,125.22v24.52l21,12.11A67.07,67.07,0,0,0,141,149.39V125.22l-21.27-12.28Z" style="fill:#069;opacity:0.8705899715423584"/></g></g><g style="isolation:isolate"><g style="clip-path:url(#clip-path-15)"><path d="M93.06,125.22,71.82,112.94,50.56,125.22v24.17a67.5,67.5,0,0,0,21.53,12.46l21-12.11Z" style="fill:#069;opacity:0.8705899715423584"/></g></g><g style="isolation:isolate"><g style="clip-path:url(#clip-path-16)"><path d="M69.13,83.73,47.86,71.48l-21,12.09a68.73,68.73,0,0,0,0,24.85l21,12.11,21.27-12.25Z" style="fill:#069;opacity:0.8705899715423584"/></g></g></g></g></svg>