<svg xmlns="http://www.w3.org/2000/svg" xmlns:xlink="http://www.w3.org/1999/xlink" width="174.7" height="156.8" viewBox="0 0 174.7 156.8"><defs><clipPath id="a" transform="translate(-9 -17.6)"><rect x="79.2" y="25.4" width="33.2" height="12.23" style="fill:none"/></clipPath><clipPath id="b" transform="translate(-9 -17.6)"><rect x="98.4" y="30.2" width="42.5" height="48.91" style="fill:none"/></clipPath><clipPath id="c" transform="translate(-9 -17.6)"><rect x="146.3" y="47.7" width="16.6" height="28.72" style="fill:none"/></clipPath><clipPath id="d" transform="translate(-9 -17.6)"><rect x="122.4" y="71.5" width="43.8" height="49.05" style="fill:none"/></clipPath><clipPath id="e" transform="translate(-9 -17.6)"><rect x="146.3" y="115.6" width="16.6" height="28.72" style="fill:none"/></clipPath><clipPath id="f" transform="translate(-9 -17.6)"><rect x="79.2" y="154.4" width="33.2" height="12.22" style="fill:none"/></clipPath><clipPath id="g" transform="translate(-9 -17.6)"><rect x="28.6" y="115.6" width="16.6" height="28.72" style="fill:none"/></clipPath><clipPath id="h" transform="translate(-9 -17.6)"><rect x="28.6" y="47.7" width="16.6" height="28.72" style="fill:none"/></clipPath><clipPath id="i" transform="translate(-9 -17.6)"><rect x="50.6" y="30.2" width="42.5" height="48.91" style="fill:none"/></clipPath><clipPath id="j" transform="translate(-9 -17.6)"><rect x="74.5" y="71.4" width="42.5" height="49.1" style="fill:none"/></clipPath><clipPath id="k" transform="translate(-9 -17.6)"><rect x="98.4" y="112.9" width="42.5" height="48.92" style="fill:none"/></clipPath><clipPath id="l" transform="translate(-9 -17.6)"><rect x="50.6" y="112.9" width="42.5" height="48.92" style="fill:none"/></clipPath><clipPath id="m" transform="translate(-9 -17.6)"><rect x="25.4" y="71.5" width="43.7" height="49.05" style="fill:none"/></clipPath></defs><path d="M131.1,17.6H60.3a17.3,17.3,0,0,0-14.8,8.5c-48.7,87.2-48.7,52.6.1,139.8a17.1,17.1,0,0,0,14.8,8.5h70.8a17.2,17.2,0,0,0,14.8-8.6l35.4-61.3a17.4,17.4,0,0,0,0-17.1L146,26.1A17.1,17.1,0,0,0,131.1,17.6Z" transform="translate(-9 -17.6)" style="fill:#fff"/><g style="clip-path:url(#a)"><path d="M112.4,28a71.6,71.6,0,0,0-33.2,0l16.6,9.6Z" transform="translate(-9 -17.6)" style="fill:#069;isolation:isolate;opacity:0.8705899715423584"/></g><g style="clip-path:url(#b)"><path d="M98.4,66.8l21.3,12.3L141,66.8V42.6a67.1,67.1,0,0,0-21.5-12.4l-21,12.1Z" transform="translate(-9 -17.6)" style="fill:#069;isolation:isolate;opacity:0.8705899715423584"/></g><g style="clip-path:url(#c)"><path d="M162.3,74.4a68.9,68.9,0,0,0-16-26.7V66.8L163,76.4l-.6-2" transform="translate(-9 -17.6)" style="fill:#069;isolation:isolate;opacity:0.8705899715423584"/></g><g style="clip-path:url(#d)"><path d="M164.6,83.6l-21-12.1L122.4,83.7v24.6l21.2,12.2,21-12.1a64.7,64.7,0,0,0,0-24.8" transform="translate(-9 -17.6)" style="fill:#069;isolation:isolate;opacity:0.8705899715423584"/></g><g style="clip-path:url(#e)"><path d="M146.3,144.3A69.9,69.9,0,0,0,163,115.6l-16.6,9.6Z" transform="translate(-9 -17.6)" style="fill:#069;isolation:isolate;opacity:0.8705899715423584"/></g><g style="clip-path:url(#f)"><path d="M79.2,164a69.1,69.1,0,0,0,33.2,0l-16.7-9.6Z" transform="translate(-9 -17.6)" style="fill:#069;isolation:isolate;opacity:0.8705899715423584"/></g><g style="clip-path:url(#g)"><path d="M29.2,117.6a68.9,68.9,0,0,0,16,26.7V125.2l-16.6-9.6a15.2,15.2,0,0,0,.6,2" transform="translate(-9 -17.6)" style="fill:#069;isolation:isolate;opacity:0.8705899715423584"/></g><g style="clip-path:url(#h)"><path d="M45.2,47.7A68.6,68.6,0,0,0,28.6,76.4l16.6-9.6Z" transform="translate(-9 -17.6)" style="fill:#069;isolation:isolate;opacity:0.8705899715423584"/></g><g style="clip-path:url(#i)"><path d="M93.1,66.8V42.3l-21-12.1A66,66,0,0,0,50.6,42.6V66.8L71.8,79.1Z" transform="translate(-9 -17.6)" style="fill:#069;isolation:isolate;opacity:0.8705899715423584"/></g><g style="clip-path:url(#j)"><polygon points="65.5 66.1 65.5 90.7 86.8 103 108 90.7 108 66.1 86.8 53.9 65.5 66.1" style="fill:#069;isolation:isolate;opacity:0.8705899715423584"/></g><g style="clip-path:url(#k)"><path d="M98.4,125.2v24.5l21,12.2A66.7,66.7,0,0,0,141,149.4V125.2l-21.3-12.3Z" transform="translate(-9 -17.6)" style="fill:#069;isolation:isolate;opacity:0.8705899715423584"/></g><g style="clip-path:url(#l)"><path d="M93.1,125.2,71.8,112.9,50.6,125.2v24.2a68.1,68.1,0,0,0,21.5,12.5l21-12.2Z" transform="translate(-9 -17.6)" style="fill:#069;isolation:isolate;opacity:0.8705899715423584"/></g><g style="clip-path:url(#m)"><path d="M69.1,83.7,47.9,71.5l-21,12.1a68.9,68.9,0,0,0,0,24.8l21,12.1,21.2-12.2Z" transform="translate(-9 -17.6)" style="fill:#069;isolation:isolate;opacity:0.8705899715423584"/></g></svg>
